<svg width="54" height="10" viewBox="0 0 54 10" fill="none" xmlns="http://www.w3.org/2000/svg">
<path fill-rule="evenodd" clip-rule="evenodd" d="M53.1637 3.4033C53.1637 4.93753 52.3141 5.88706 50.9898 6.25687L53.9983 9.995H49.7154L47.4965 6.87156V9.995H43.7784V0H48.426C51.1197 0 53.1637 0.829585 53.1637 3.4033ZM48.181 4.48777C48.5258 4.48777 48.9456 4.39781 49.1605 4.2229C49.3754 4.04799 49.4803 3.81311 49.4803 3.52325C49.4803 3.21341 49.3804 2.96853 49.1755 2.78862C48.9706 2.60871 48.5408 2.51875 48.166 2.51875H47.3814V4.48777H48.181ZM34.7079 0.00500488H42.2541V2.6087H38.3961V3.78312H41.9493V6.24189H38.3961V7.39631H42.3741V10H34.7079V0.00500488ZM27.9211 6.03199L29.7552 0.00500488H33.8132L29.6253 10H26.112L21.9241 0.00500488H25.9821L27.8162 6.03199H27.9211ZM15.672 0.00500488H19.9149L23.8279 10H19.69L19.3302 8.69566H16.2567L15.8969 10H11.759L15.672 0.00500488ZM17.741 3.08344L16.8664 6.38179H18.7155L17.8409 3.08344H17.741ZM7.18641 5.04748V0.00500488H10.9095V10H7.17641L3.72314 4.95753V10H0V0.00500488H3.73313L7.18641 5.04748Z" fill="white"/>
</svg>
