<svg width="76" height="22" viewBox="0 0 76 22" fill="none" xmlns="http://www.w3.org/2000/svg">
<g filter="url(#filter0_d_118_23337)">
<path fill-rule="evenodd" clip-rule="evenodd" d="M4.73358 15.4281C5.35999 15.7065 6.11167 15.8457 6.98863 15.8457C8.24144 15.8457 9.23672 15.5743 9.97449 15.0314C10.7262 14.4885 11.2621 13.7508 11.5823 12.8181H15.0483V20.4185H17.6792V1H15.0483V5.3013H11.5614C11.2412 4.38257 10.7053 3.65177 9.95361 3.10889C9.21584 2.56601 8.22752 2.29456 6.98863 2.29456C6.11167 2.29456 5.35999 2.43377 4.73358 2.71217C4.10718 2.99057 3.58518 3.38033 3.16758 3.88145C2.76389 4.38257 2.46461 4.98114 2.26973 5.67714C2.08877 6.35922 1.99829 7.10395 1.99829 7.91131V10.229C1.99829 11.0503 2.08877 11.802 2.26973 12.484C2.46461 13.1661 2.76389 13.7577 3.16758 14.2589C3.58518 14.76 4.10718 15.1497 4.73358 15.4281ZM5.08854 5.53098C5.47831 4.9185 6.11167 4.61225 6.98863 4.61225C7.8656 4.61225 8.492 4.9185 8.86784 5.53098C9.2576 6.14346 9.45248 7.0413 9.45248 8.22451V9.9158C9.45248 11.099 9.2576 11.9968 8.86784 12.6093C8.492 13.2218 7.8656 13.5281 6.98863 13.5281C6.11167 13.5281 5.47831 13.2218 5.08854 12.6093C4.7127 11.9968 4.52478 11.099 4.52478 9.9158V8.22451C4.52478 7.0413 4.7127 6.14346 5.08854 5.53098ZM11.979 10.5631V7.55635H15.0483V10.5631H11.979ZM23.3318 3.10636V1.02085H25.8762V3.10636H28.9418V5.29614H19.8699V3.10636H23.3318ZM24.604 12.7831C23.9505 12.7831 23.3666 12.6997 22.8522 12.5328C22.3516 12.366 21.9276 12.1436 21.58 11.8655C21.2324 11.5874 20.9613 11.2676 20.7667 10.9062C20.5859 10.5308 20.4955 10.1345 20.4955 9.71741V8.92492C20.4955 8.50782 20.5859 8.11853 20.7667 7.75704C20.9613 7.38165 21.2324 7.05492 21.58 6.77685C21.9276 6.49878 22.3516 6.27633 22.8522 6.10949C23.3666 5.94265 23.9505 5.85923 24.604 5.85923C25.2435 5.85923 25.8205 5.94265 26.335 6.10949C26.8494 6.27633 27.2804 6.49878 27.628 6.77685C27.9756 7.05492 28.2397 7.38165 28.4205 7.75704C28.6151 8.11853 28.7124 8.50782 28.7124 8.92492V9.71741C28.7124 10.1345 28.6151 10.5308 28.4205 10.9062C28.2397 11.2676 27.9756 11.5874 27.628 11.8655C27.2804 12.1436 26.8494 12.366 26.335 12.5328C25.8205 12.6997 25.2435 12.7831 24.604 12.7831ZM24.604 7.86131C24.02 7.86131 23.5751 7.9934 23.2693 8.25756C22.9634 8.52172 22.8105 8.82065 22.8105 9.15433V9.48801C22.8105 9.82169 22.9634 10.1206 23.2693 10.3848C23.5751 10.6489 24.02 10.781 24.604 10.781C25.1879 10.781 25.6328 10.6489 25.9387 10.3848C26.2446 10.1206 26.3975 9.82169 26.3975 9.48801V9.15433C26.3975 8.82065 26.2446 8.52172 25.9387 8.25756C25.6328 7.9934 25.1879 7.86131 24.604 7.86131ZM32.4246 5.81752H33.9888V1H36.4914V13.1376H33.9888V8.09072H32.4246V12.3243H29.9429V1.25026H32.4246V5.81752ZM30.3391 21C29.4354 21 28.6012 20.9235 27.8365 20.7706C27.0857 20.6177 26.4323 20.3952 25.8762 20.1032C25.3339 19.8113 24.9029 19.4498 24.5831 19.0188C24.2773 18.5878 24.1243 18.0942 24.1243 17.5381V16.7039C24.1243 16.1477 24.2773 15.6542 24.5831 15.2231C24.9029 14.7921 25.3339 14.4307 25.8762 14.1387C26.4323 13.8467 27.0857 13.6243 27.8365 13.4713C28.6012 13.3184 29.4354 13.2419 30.3391 13.2419C31.229 13.2419 32.0562 13.3184 32.8209 13.4713C33.5856 13.6243 34.239 13.8467 34.7813 14.1387C35.3374 14.4307 35.7684 14.7921 36.0743 15.2231C36.3941 15.6542 36.5539 16.1477 36.5539 16.7039V17.5381C36.5539 18.0942 36.3941 18.5878 36.0743 19.0188C35.7684 19.4498 35.3374 19.8113 34.7813 20.1032C34.239 20.3952 33.5856 20.6177 32.8209 20.7706C32.0562 20.9235 31.229 21 30.3391 21ZM30.3391 15.3691C29.8664 15.3691 29.4076 15.4039 28.9627 15.4734C28.5317 15.5429 28.1494 15.6472 27.8157 15.7862C27.482 15.9114 27.2109 16.0713 27.0023 16.2659C26.8077 16.4605 26.7104 16.6761 26.7104 16.9124V17.3295C26.7104 17.5659 26.8077 17.7814 27.0023 17.976C27.2109 18.1707 27.482 18.3306 27.8157 18.4557C28.1494 18.5947 28.5317 18.699 28.9627 18.7685C29.4076 18.838 29.8664 18.8728 30.3391 18.8728C30.8118 18.8728 31.2637 18.838 31.6947 18.7685C32.1396 18.699 32.5289 18.5947 32.8626 18.4557C33.1963 18.3306 33.4604 18.1707 33.6551 17.976C33.8636 17.7814 33.9679 17.5659 33.9679 17.3295V16.9124C33.9679 16.6761 33.8636 16.4605 33.6551 16.2659C33.4604 16.0713 33.1963 15.9114 32.8626 15.7862C32.5289 15.6472 32.1396 15.5429 31.6947 15.4734C31.2637 15.4039 30.8118 15.3691 30.3391 15.3691ZM46.3411 20.6911C47.0766 20.8576 47.8745 20.9409 48.7348 20.9409C49.5952 20.9409 50.3931 20.8576 51.1286 20.6911C51.8641 20.5246 52.5024 20.2817 53.0436 19.9625C53.5848 19.6434 54.008 19.2548 54.3133 18.7969C54.6325 18.339 54.792 17.8186 54.792 17.2358V16.3199C54.792 15.7371 54.6325 15.2167 54.3133 14.7588C54.008 14.3008 53.5848 13.9123 53.0436 13.5931C52.5024 13.274 51.8641 13.0311 51.1286 12.8646C50.3931 12.6981 49.5952 12.6148 48.7348 12.6148C47.8745 12.6148 47.0766 12.6981 46.3411 12.8646C45.6056 13.0311 44.9673 13.274 44.4261 13.5931C43.8849 13.9123 43.4548 14.3008 43.1356 14.7588C42.8303 15.2167 42.6777 15.7371 42.6777 16.3199V17.2358C42.6777 17.8186 42.8303 18.339 43.1356 18.7969C43.4548 19.2548 43.8849 19.6434 44.4261 19.9625C44.9673 20.2817 45.6056 20.5246 46.3411 20.6911ZM49.0054 7.99387H52.1069V12.5107H54.7296V1H52.1069V5.76666H49.0054V7.99387ZM47.4235 14.9045C47.8398 14.8073 48.2769 14.7588 48.7348 14.7588C49.1928 14.7588 49.6299 14.8073 50.0462 14.9045C50.4625 14.9877 50.8302 15.1126 51.1494 15.2792C51.4686 15.4318 51.7253 15.6191 51.9196 15.8412C52.1138 16.0493 52.211 16.2783 52.211 16.5281V17.0276C52.211 17.2774 52.1138 17.5064 51.9196 17.7145C51.7253 17.9365 51.4686 18.1239 51.1494 18.2765C50.8302 18.443 50.4625 18.5679 50.0462 18.6512C49.6299 18.7483 49.1928 18.7969 48.7348 18.7969C48.2769 18.7969 47.8398 18.7483 47.4235 18.6512C47.0072 18.5679 46.6395 18.443 46.3203 18.2765C46.0011 18.1239 45.7444 17.9365 45.5501 17.7145C45.3559 17.5064 45.2587 17.2774 45.2587 17.0276V16.5281C45.2587 16.2783 45.3559 16.0493 45.5501 15.8412C45.7444 15.6191 46.0011 15.4318 46.3203 15.2792C46.6395 15.1126 47.0072 14.9877 47.4235 14.9045ZM49.5675 2.16565H39.5762V4.39286H43.3437V5.66258C43.3437 6.17602 43.2397 6.63395 43.0315 7.03638C42.8372 7.42492 42.5597 7.77878 42.1989 8.09795C41.7549 8.48649 41.2345 8.90973 40.6378 9.36767C40.055 9.8256 39.4305 10.2766 38.7644 10.7206L40.3047 12.6356C40.8321 12.2748 41.3247 11.921 41.7826 11.5741C42.2544 11.2133 42.7124 10.8525 43.1564 10.4917C43.6421 10.117 44.0237 9.79785 44.3012 9.53419C44.5788 9.25665 44.7384 9.05544 44.78 8.93055H44.8008C44.8424 9.04156 44.9951 9.20808 45.2587 9.43011C45.5224 9.65214 45.8762 9.92274 46.3203 10.2419C47.0974 10.8108 47.9508 11.4006 48.8806 12.0112L50.2752 10.1586C49.7478 9.8256 49.2344 9.48562 48.7348 9.1387C48.2353 8.79178 47.7635 8.4518 47.3194 8.11876C47.0419 7.91061 46.8129 7.71634 46.6325 7.53594C46.466 7.34166 46.3272 7.14739 46.2162 6.95312C46.1191 6.75884 46.0497 6.55763 46.0081 6.34948C45.9803 6.14133 45.9664 5.91236 45.9664 5.66258V4.39286H49.5675V2.16565ZM67.4528 15.6812V12.5216H72.6078V2.33632H69.9887V5.43349H62.2977V2.33632H59.6787V12.5216H64.8337V15.6812H57.2882V17.9053H74.9982V15.6812H67.4528ZM69.9887 7.65764V10.3183H62.2977V7.65764H69.9887Z" fill="white"/>
</g>
<defs>
<filter id="filter0_d_118_23337" x="0.998291" y="0" width="74.9999" height="22" filterUnits="userSpaceOnUse" color-interpolation-filters="sRGB">
<feFlood flood-opacity="0" result="BackgroundImageFix"/>
<feColorMatrix in="SourceAlpha" type="matrix" values="0 0 0 0 0 0 0 0 0 0 0 0 0 0 0 0 0 0 127 0" result="hardAlpha"/>
<feOffset/>
<feGaussianBlur stdDeviation="0.5"/>
<feColorMatrix type="matrix" values="0 0 0 0 0 0 0 0 0 0 0 0 0 0 0 0 0 0 0.3 0"/>
<feBlend mode="normal" in2="BackgroundImageFix" result="effect1_dropShadow_118_23337"/>
<feBlend mode="normal" in="SourceGraphic" in2="effect1_dropShadow_118_23337" result="shape"/>
</filter>
</defs>
</svg>
